<svg width="118" height="50" viewBox="0 0 118 50" fill="none" xmlns="http://www.w3.org/2000/svg">
<rect width="118" height="50" rx="25" fill="#171100"/>
<path d="M30.8108 24.988C31.3614 25.0907 31.8141 25.366 32.1688 25.814C32.5234 26.262 32.7008 26.7753 32.7008 27.354C32.7008 27.8767 32.5701 28.3387 32.3088 28.74C32.0568 29.132 31.6881 29.44 31.2028 29.664C30.7174 29.888 30.1434 30 29.4808 30H25.2668V20.228H29.2988C29.9614 20.228 30.5308 20.3353 31.0068 20.55C31.4921 20.7647 31.8561 21.0633 32.0988 21.446C32.3508 21.8287 32.4768 22.2627 32.4768 22.748C32.4768 23.3173 32.3228 23.7933 32.0148 24.176C31.7161 24.5587 31.3148 24.8293 30.8108 24.988ZM27.2268 24.26H29.0188C29.4854 24.26 29.8448 24.1573 30.0968 23.952C30.3488 23.7373 30.4748 23.434 30.4748 23.042C30.4748 22.65 30.3488 22.3467 30.0968 22.132C29.8448 21.9173 29.4854 21.81 29.0188 21.81H27.2268V24.26ZM29.2008 28.404C29.6768 28.404 30.0454 28.292 30.3068 28.068C30.5774 27.844 30.7128 27.5267 30.7128 27.116C30.7128 26.696 30.5728 26.3693 30.2928 26.136C30.0128 25.8933 29.6348 25.772 29.1588 25.772H27.2268V28.404H29.2008ZM37.7069 30.126C36.9602 30.126 36.2882 29.9627 35.6909 29.636C35.0935 29.3 34.6222 28.8287 34.2769 28.222C33.9409 27.6153 33.7729 26.9153 33.7729 26.122C33.7729 25.3287 33.9455 24.6287 34.2909 24.022C34.6455 23.4153 35.1262 22.9487 35.7329 22.622C36.3395 22.286 37.0162 22.118 37.7629 22.118C38.5095 22.118 39.1862 22.286 39.7929 22.622C40.3995 22.9487 40.8755 23.4153 41.2209 24.022C41.5755 24.6287 41.7529 25.3287 41.7529 26.122C41.7529 26.9153 41.5709 27.6153 41.2069 28.222C40.8522 28.8287 40.3669 29.3 39.7509 29.636C39.1442 29.9627 38.4629 30.126 37.7069 30.126ZM37.7069 28.418C38.0615 28.418 38.3929 28.334 38.7009 28.166C39.0182 27.9887 39.2702 27.7273 39.4569 27.382C39.6435 27.0367 39.7369 26.6167 39.7369 26.122C39.7369 25.3847 39.5409 24.82 39.1489 24.428C38.7662 24.0267 38.2949 23.826 37.7349 23.826C37.1749 23.826 36.7035 24.0267 36.3209 24.428C35.9475 24.82 35.7609 25.3847 35.7609 26.122C35.7609 26.8593 35.9429 27.4287 36.3069 27.83C36.6802 28.222 37.1469 28.418 37.7069 28.418ZM46.6346 30.126C45.8879 30.126 45.2159 29.9627 44.6186 29.636C44.0213 29.3 43.5499 28.8287 43.2046 28.222C42.8686 27.6153 42.7006 26.9153 42.7006 26.122C42.7006 25.3287 42.8733 24.6287 43.2186 24.022C43.5733 23.4153 44.0539 22.9487 44.6606 22.622C45.2673 22.286 45.9439 22.118 46.6906 22.118C47.4373 22.118 48.1139 22.286 48.7206 22.622C49.3273 22.9487 49.8033 23.4153 50.1486 24.022C50.5033 24.6287 50.6806 25.3287 50.6806 26.122C50.6806 26.9153 50.4986 27.6153 50.1346 28.222C49.7799 28.8287 49.2946 29.3 48.6786 29.636C48.0719 29.9627 47.3906 30.126 46.6346 30.126ZM46.6346 28.418C46.9893 28.418 47.3206 28.334 47.6286 28.166C47.9459 27.9887 48.1979 27.7273 48.3846 27.382C48.5713 27.0367 48.6646 26.6167 48.6646 26.122C48.6646 25.3847 48.4686 24.82 48.0766 24.428C47.6939 24.0267 47.2226 23.826 46.6626 23.826C46.1026 23.826 45.6313 24.0267 45.2486 24.428C44.8753 24.82 44.6886 25.3847 44.6886 26.122C44.6886 26.8593 44.8706 27.4287 45.2346 27.83C45.6079 28.222 46.0746 28.418 46.6346 28.418ZM56.7103 30L54.0783 26.696V30H52.1183V19.64H54.0783V25.534L56.6823 22.244H59.2303L55.8143 26.136L59.2583 30H56.7103ZM71.9881 30H70.0281L65.5901 23.294V30H63.6301V20.214H65.5901L70.0281 26.934V20.214H71.9881V30ZM77.369 30.126C76.6223 30.126 75.9503 29.9627 75.353 29.636C74.7557 29.3 74.2843 28.8287 73.939 28.222C73.603 27.6153 73.435 26.9153 73.435 26.122C73.435 25.3287 73.6077 24.6287 73.953 24.022C74.3077 23.4153 74.7883 22.9487 75.395 22.622C76.0017 22.286 76.6783 22.118 77.425 22.118C78.1717 22.118 78.8483 22.286 79.455 22.622C80.0617 22.9487 80.5377 23.4153 80.883 24.022C81.2377 24.6287 81.415 25.3287 81.415 26.122C81.415 26.9153 81.233 27.6153 80.869 28.222C80.5143 28.8287 80.029 29.3 79.413 29.636C78.8063 29.9627 78.125 30.126 77.369 30.126ZM77.369 28.418C77.7237 28.418 78.055 28.334 78.363 28.166C78.6803 27.9887 78.9323 27.7273 79.119 27.382C79.3057 27.0367 79.399 26.6167 79.399 26.122C79.399 25.3847 79.203 24.82 78.811 24.428C78.4283 24.0267 77.957 23.826 77.397 23.826C76.837 23.826 76.3657 24.0267 75.983 24.428C75.6097 24.82 75.423 25.3847 75.423 26.122C75.423 26.8593 75.605 27.4287 75.969 27.83C76.3423 28.222 76.809 28.418 77.369 28.418ZM93.6047 22.244L91.3367 30H89.2227L87.8087 24.582L86.3947 30H84.2667L81.9847 22.244H83.9727L85.3447 28.152L86.8287 22.244H88.9007L90.3567 28.138L91.7287 22.244H93.6047Z" fill="white"/>
</svg>
